<mxfile host="Electron" modified="2023-12-13T11:59:19.805Z" agent="Mozilla/5.0 (Windows NT 10.0; Win64; x64) AppleWebKit/537.36 (KHTML, like Gecko) draw.io/22.1.2 Chrome/114.0.5735.289 Electron/25.9.4 Safari/537.36" etag="Z99Nb42hpIWY6Ib166Ci" version="22.1.2" type="device">
  <diagram name="Page-1" id="xhnoBTGJmVCZBG6rVxtn">
    <mxGraphModel dx="992" dy="605" grid="1" gridSize="10" guides="1" tooltips="1" connect="1" arrows="1" fold="1" page="1" pageScale="1" pageWidth="850" pageHeight="1100" math="0" shadow="0">
      <root>
        <mxCell id="0" />
        <mxCell id="1" parent="0" />
        <mxCell id="oEvrXBtWy5OaXELuO3YW-1" value="1" style="ellipse;whiteSpace=wrap;html=1;aspect=fixed;" vertex="1" parent="1">
          <mxGeometry x="260" y="220" width="40" height="40" as="geometry" />
        </mxCell>
        <mxCell id="oEvrXBtWy5OaXELuO3YW-2" value="2" style="ellipse;whiteSpace=wrap;html=1;aspect=fixed;" vertex="1" parent="1">
          <mxGeometry x="260" y="340" width="40" height="40" as="geometry" />
        </mxCell>
        <mxCell id="oEvrXBtWy5OaXELuO3YW-3" value="3" style="ellipse;whiteSpace=wrap;html=1;aspect=fixed;" vertex="1" parent="1">
          <mxGeometry x="400" y="220" width="40" height="40" as="geometry" />
        </mxCell>
        <mxCell id="oEvrXBtWy5OaXELuO3YW-4" value="4" style="ellipse;whiteSpace=wrap;html=1;aspect=fixed;" vertex="1" parent="1">
          <mxGeometry x="400" y="340" width="40" height="40" as="geometry" />
        </mxCell>
        <mxCell id="oEvrXBtWy5OaXELuO3YW-5" value="" style="endArrow=classic;html=1;rounded=0;exitX=1;exitY=0.5;exitDx=0;exitDy=0;entryX=0;entryY=0.5;entryDx=0;entryDy=0;" edge="1" parent="1" source="oEvrXBtWy5OaXELuO3YW-1" target="oEvrXBtWy5OaXELuO3YW-3">
          <mxGeometry width="50" height="50" relative="1" as="geometry">
            <mxPoint x="400" y="340" as="sourcePoint" />
            <mxPoint x="450" y="290" as="targetPoint" />
          </mxGeometry>
        </mxCell>
        <mxCell id="oEvrXBtWy5OaXELuO3YW-6" value="30" style="edgeLabel;html=1;align=center;verticalAlign=middle;resizable=0;points=[];fontSize=11;" vertex="1" connectable="0" parent="oEvrXBtWy5OaXELuO3YW-5">
          <mxGeometry x="0.1312" y="-1" relative="1" as="geometry">
            <mxPoint x="-10" y="-2" as="offset" />
          </mxGeometry>
        </mxCell>
        <mxCell id="oEvrXBtWy5OaXELuO3YW-7" value="" style="endArrow=classic;html=1;rounded=0;exitX=0.5;exitY=0;exitDx=0;exitDy=0;entryX=0.5;entryY=1;entryDx=0;entryDy=0;" edge="1" parent="1" source="oEvrXBtWy5OaXELuO3YW-2" target="oEvrXBtWy5OaXELuO3YW-1">
          <mxGeometry width="50" height="50" relative="1" as="geometry">
            <mxPoint x="400" y="340" as="sourcePoint" />
            <mxPoint x="450" y="290" as="targetPoint" />
          </mxGeometry>
        </mxCell>
        <mxCell id="oEvrXBtWy5OaXELuO3YW-8" value="30" style="edgeLabel;html=1;align=center;verticalAlign=middle;resizable=0;points=[];" vertex="1" connectable="0" parent="oEvrXBtWy5OaXELuO3YW-7">
          <mxGeometry x="-0.0343" y="-3" relative="1" as="geometry">
            <mxPoint y="1" as="offset" />
          </mxGeometry>
        </mxCell>
        <mxCell id="oEvrXBtWy5OaXELuO3YW-9" value="" style="endArrow=classic;html=1;rounded=0;entryX=0.5;entryY=1;entryDx=0;entryDy=0;" edge="1" parent="1" source="oEvrXBtWy5OaXELuO3YW-4" target="oEvrXBtWy5OaXELuO3YW-3">
          <mxGeometry width="50" height="50" relative="1" as="geometry">
            <mxPoint x="400" y="340" as="sourcePoint" />
            <mxPoint x="450" y="290" as="targetPoint" />
          </mxGeometry>
        </mxCell>
        <mxCell id="oEvrXBtWy5OaXELuO3YW-10" value="20" style="edgeLabel;html=1;align=center;verticalAlign=middle;resizable=0;points=[];" vertex="1" connectable="0" parent="oEvrXBtWy5OaXELuO3YW-9">
          <mxGeometry x="-0.3704" y="1" relative="1" as="geometry">
            <mxPoint x="7" y="-12" as="offset" />
          </mxGeometry>
        </mxCell>
        <mxCell id="oEvrXBtWy5OaXELuO3YW-11" value="" style="endArrow=classic;html=1;rounded=0;entryX=1;entryY=0.5;entryDx=0;entryDy=0;exitX=0;exitY=0.5;exitDx=0;exitDy=0;" edge="1" parent="1" source="oEvrXBtWy5OaXELuO3YW-4" target="oEvrXBtWy5OaXELuO3YW-2">
          <mxGeometry width="50" height="50" relative="1" as="geometry">
            <mxPoint x="400" y="340" as="sourcePoint" />
            <mxPoint x="450" y="290" as="targetPoint" />
          </mxGeometry>
        </mxCell>
        <mxCell id="oEvrXBtWy5OaXELuO3YW-12" value="30" style="edgeLabel;html=1;align=center;verticalAlign=middle;resizable=0;points=[];" vertex="1" connectable="0" parent="oEvrXBtWy5OaXELuO3YW-11">
          <mxGeometry x="-0.1442" y="1" relative="1" as="geometry">
            <mxPoint as="offset" />
          </mxGeometry>
        </mxCell>
        <mxCell id="oEvrXBtWy5OaXELuO3YW-13" value="" style="endArrow=classic;html=1;rounded=0;exitX=1;exitY=0;exitDx=0;exitDy=0;entryX=0;entryY=1;entryDx=0;entryDy=0;" edge="1" parent="1" source="oEvrXBtWy5OaXELuO3YW-2" target="oEvrXBtWy5OaXELuO3YW-3">
          <mxGeometry width="50" height="50" relative="1" as="geometry">
            <mxPoint x="400" y="340" as="sourcePoint" />
            <mxPoint x="450" y="290" as="targetPoint" />
          </mxGeometry>
        </mxCell>
        <mxCell id="oEvrXBtWy5OaXELuO3YW-14" value="20" style="edgeLabel;html=1;align=center;verticalAlign=middle;resizable=0;points=[];" vertex="1" connectable="0" parent="oEvrXBtWy5OaXELuO3YW-13">
          <mxGeometry x="-0.1321" y="-1" relative="1" as="geometry">
            <mxPoint as="offset" />
          </mxGeometry>
        </mxCell>
      </root>
    </mxGraphModel>
  </diagram>
</mxfile>
